<svg height="512" viewBox="0 0 64 64" width="512" xmlns="http://www.w3.org/2000/svg" xmlns:xlink="http://www.w3.org/1999/xlink"><linearGradient id="New_Gradient_Swatch_1" gradientUnits="userSpaceOnUse" x1="34" x2="34" y1="-.89" y2="66.675"><stop offset="0" stop-color="#fff33b"/><stop offset=".014" stop-color="#fee72e"/><stop offset=".042" stop-color="#fed51b"/><stop offset=".07" stop-color="#fdca10"/><stop offset=".1" stop-color="#fdc70c"/><stop offset=".4" stop-color="#f3903f"/><stop offset=".8" stop-color="#ed683c"/><stop offset="1" stop-color="#e93e3a"/></linearGradient><linearGradient id="New_Gradient_Swatch_1-2" x1="43" x2="43" xlink:href="#New_Gradient_Swatch_1" y1="-.89" y2="66.675"/><linearGradient id="New_Gradient_Swatch_1-3" x1="46" x2="46" xlink:href="#New_Gradient_Swatch_1" y1="-.89" y2="66.675"/><linearGradient id="New_Gradient_Swatch_1-4" x1="32" x2="32" xlink:href="#New_Gradient_Swatch_1" y1="-.89" y2="66.675"/><linearGradient id="New_Gradient_Swatch_1-5" x1="28.232" x2="28.232" xlink:href="#New_Gradient_Swatch_1" y1="-.89" y2="66.675"/><linearGradient id="New_Gradient_Swatch_1-6" x1="19.125" x2="19.125" xlink:href="#New_Gradient_Swatch_1" y1="-.89" y2="66.675"/><linearGradient id="New_Gradient_Swatch_1-7" x1="40" x2="40" xlink:href="#New_Gradient_Swatch_1" y1="-.89" y2="66.675"/><linearGradient id="New_Gradient_Swatch_1-8" x1="21.182" x2="21.182" xlink:href="#New_Gradient_Swatch_1" y1="-.89" y2="66.675"/><g id="Arts-Study-Computer_presentation-School-Education" data-name="Arts-Study-Computer presentation-School-Education"><path d="m34 14a4 4 0 1 0 4 4 4 4 0 0 0 -4-4zm0 6a2 2 0 1 1 2-2 2 2 0 0 1 -2 2z" fill="url(#New_Gradient_Swatch_1)"/><path d="m43 19a3 3 0 1 0 3 3 3 3 0 0 0 -3-3zm0 4a1 1 0 1 1 1-1 1 1 0 0 1 -1 1z" fill="url(#New_Gradient_Swatch_1-2)"/><path d="m43 30a3 3 0 1 0 3-3 3 3 0 0 0 -3 3zm3-1a1 1 0 1 1 -1 1 1 1 0 0 1 1-1z" fill="url(#New_Gradient_Swatch_1-3)"/><path d="m59 2h-54a3.009 3.009 0 0 0 -3 3v48a3.009 3.009 0 0 0 3 3h19.13l-2.96 4.45a.963.963 0 0 0 -.05 1.02.984.984 0 0 0 .88.53h20a.984.984 0 0 0 .88-.53.963.963 0 0 0 -.05-1.02l-2.96-4.45h19.13a3.009 3.009 0 0 0 3-3v-48a3.009 3.009 0 0 0 -3-3zm-18.87 58h-16.26l2.67-4h10.92zm19.87-7a1 1 0 0 1 -1 1h-54a1 1 0 0 1 -1-1v-3h56zm0-5h-56v-43a1 1 0 0 1 1-1h54a1 1 0 0 1 1 1z" fill="url(#New_Gradient_Swatch_1-4)"/><path d="m36.33 37.5-11-19.05a1 1 0 0 0 -.61-.47 1.013 1.013 0 0 0 -.76.1l-3.46 2a1.01 1.01 0 0 0 -.37 1.37l11 19.05a1.056 1.056 0 0 0 .61.47 1.153 1.153 0 0 0 .26.03 1.094 1.094 0 0 0 .5-.13l3.46-2a1 1 0 0 0 .37-1.37zm-3.96 1.13-10-17.32 1.73-1 10 17.32z" fill="url(#New_Gradient_Swatch_1-5)"/><path d="m23.2 12.75-.95-1.64a5.017 5.017 0 0 0 -1.9-1.87l-4.13-2.29a1 1 0 0 0 -.99.01 1.014 1.014 0 0 0 -.5.85l-.08 4.72a5.045 5.045 0 0 0 .67 2.58l.95 1.64a3.006 3.006 0 0 0 4.1 1.1l1.73-1a3 3 0 0 0 1.1-4.1zm-1.64 1.76a.974.974 0 0 1 -.46.61l-1.73 1a1.01 1.01 0 0 1 -1.37-.37l-.95-1.64a2.989 2.989 0 0 1 -.4-1.55l.05-3.05 2.68 1.48a2.99 2.99 0 0 1 1.14 1.12l.94 1.64a.963.963 0 0 1 .1.76z" fill="url(#New_Gradient_Swatch_1-6)"/><path d="m28.333 11.968a17 17 0 0 1 18.406 27.28 6.011 6.011 0 0 0 -5.739-4.248 1 1 0 0 0 0 2 4 4 0 0 1 4 4 1.862 1.862 0 0 1 -.02.284 1 1 0 0 0 1.653.894 19 19 0 0 0 -18.966-32.1 1 1 0 0 0 .666 1.887z" fill="url(#New_Gradient_Swatch_1-7)"/><path d="m26.259 38.034a12 12 0 0 1 -8.486-14.7 1 1 0 1 0 -1.931-.518 14.016 14.016 0 0 0 9.9 17.147 1.015 1.015 0 0 0 .258.037 1 1 0 0 0 .258-1.966z" fill="url(#New_Gradient_Swatch_1-8)"/></g></svg>