<svg id="Calque_1" data-name="Calque 1" xmlns="http://www.w3.org/2000/svg" viewBox="0 0 278.87 440.58"><defs><style>.cls-1{stroke:#000;}.cls-1,.cls-2{stroke-miterlimit:10;stroke-width:10px;}.cls-2{stroke:#fff;}.cls-3{fill:#007bff;}.cls-4{fill:#fff;}</style></defs><title>logo_color</title><path class="cls-1" d="M133.77,314.89" transform="translate(-20.98 -19.71)"/><path class="cls-1" d="M160.05,240.42" transform="translate(-20.98 -19.71)"/><path class="cls-1" d="M133.77,314.89" transform="translate(-20.98 -19.71)"/><path class="cls-1" d="M160.05,240.42" transform="translate(-20.98 -19.71)"/><path class="cls-1" d="M157.17,404.6" transform="translate(-20.98 -19.71)"/><path class="cls-1" d="M160.05,240.42" transform="translate(-20.98 -19.71)"/><path class="cls-2" d="M152.25,326.23" transform="translate(-20.98 -19.71)"/><path class="cls-3" d="M299.86,240c0-74.92-59.41-136.21-133.59-139.29V460.29c6.58-.17,13.08-.65,19.5-1.39V377.09C250.59,365.13,299.86,308.23,299.86,240ZM185.77,122.8c54,11.67,94.59,59.77,94.59,117.2s-40.59,105.53-94.59,117.2Z" transform="translate(-20.98 -19.71)"/><path class="cls-4" d="M135.07,102.91C70.25,114.87,21,171.77,21,240c0,61.19,39.65,113.27,94.59,132V351.2A120.1,120.1,0,0,1,40.49,240c0-57.43,40.59-105.53,94.58-117.2V377.08a140.51,140.51,0,0,0,19.5,2.22V19.71c-6.58.17-13.08.65-19.5,1.39Z" transform="translate(-20.98 -19.71)"/></svg>