<svg height="512" viewBox="0 0 64 64" width="512" xmlns="http://www.w3.org/2000/svg" xmlns:xlink="http://www.w3.org/1999/xlink"><linearGradient id="New_Gradient_Swatch_1" gradientUnits="userSpaceOnUse" x1="32" x2="32" y1="-2.334" y2="68.511"><stop offset="0" stop-color="#fff33b"/><stop offset=".014" stop-color="#fee72e"/><stop offset=".042" stop-color="#fed51b"/><stop offset=".07" stop-color="#fdca10"/><stop offset=".1" stop-color="#fdc70c"/><stop offset=".4" stop-color="#f3903f"/><stop offset=".8" stop-color="#ed683c"/><stop offset="1" stop-color="#e93e3a"/></linearGradient><linearGradient id="New_Gradient_Swatch_1-2" x1="13" x2="13" xlink:href="#New_Gradient_Swatch_1" y1="-2.334" y2="68.511"/><linearGradient id="New_Gradient_Swatch_1-3" x1="17" x2="17" xlink:href="#New_Gradient_Swatch_1" y1="-2.334" y2="68.511"/><linearGradient id="New_Gradient_Swatch_1-4" x1="21" x2="21" xlink:href="#New_Gradient_Swatch_1" y1="-2.334" y2="68.511"/><linearGradient id="New_Gradient_Swatch_1-5" x1="57" x2="57" xlink:href="#New_Gradient_Swatch_1" y1="-2.334" y2="68.511"/><linearGradient id="New_Gradient_Swatch_1-6" x1="35" x2="35" xlink:href="#New_Gradient_Swatch_1" y1="-2.334" y2="68.511"/><linearGradient id="New_Gradient_Swatch_1-7" x1="45" x2="45" xlink:href="#New_Gradient_Swatch_1" y1="-2.334" y2="68.511"/><linearGradient id="New_Gradient_Swatch_1-10" x1="51" x2="51" xlink:href="#New_Gradient_Swatch_1" y1="-2.334" y2="68.511"/><linearGradient id="New_Gradient_Swatch_1-11" x1="55" x2="55" xlink:href="#New_Gradient_Swatch_1" y1="-2.334" y2="68.511"/><linearGradient id="New_Gradient_Swatch_1-12" x1="53" x2="53" xlink:href="#New_Gradient_Swatch_1" y1="-2.334" y2="68.511"/><g id="Smartphone-website-web_browser-analysis-web" data-name="Smartphone-website-web browser-analysis-web"><path d="m59 12h-23v-7a3.009 3.009 0 0 0 -3-3h-28a3.009 3.009 0 0 0 -3 3v54a3.009 3.009 0 0 0 3 3h28a3.009 3.009 0 0 0 3-3v-3h23a3.009 3.009 0 0 0 3-3v-38a3.009 3.009 0 0 0 -3-3zm-30.28-8-.5 2h-18.44l-.5-2zm5.28 55a1 1 0 0 1 -1 1h-28a1 1 0 0 1 -1-1v-54a1 1 0 0 1 1-1h2.22l.81 3.24a1 1 0 0 0 .97.76h20a1 1 0 0 0 .97-.76l.81-3.24h2.22a1 1 0 0 1 1 1v7h-23a3.009 3.009 0 0 0 -3 3v38a3.009 3.009 0 0 0 3 3h23zm26-6a1 1 0 0 1 -1 1h-48a1 1 0 0 1 -1-1v-31h50zm0-33h-50v-5a1 1 0 0 1 1-1h48a1 1 0 0 1 1 1z" fill="url(#New_Gradient_Swatch_1)"/><path d="m12 16h2v2h-2z" fill="url(#New_Gradient_Swatch_1-2)"/><path d="m16 16h2v2h-2z" fill="url(#New_Gradient_Swatch_1-3)"/><path d="m20 16h2v2h-2z" fill="url(#New_Gradient_Swatch_1-4)"/><path d="m56 16h2v2h-2z" fill="url(#New_Gradient_Swatch_1-5)"/><path d="m40 48v-21a1 1 0 0 0 -1-1h-4a1 1 0 0 0 -1 1v21h-2v-15a1 1 0 0 0 -1-1h-4a1 1 0 0 0 -1 1v15h-2v-11a1 1 0 0 0 -1-1h-4a1 1 0 0 0 -1 1v11h-2v-24h-2v25a1 1 0 0 0 1 1h41v-2zm-18 0h-2v-10h2zm8 0h-2v-14h2zm8 0h-2v-20h2z" fill="url(#New_Gradient_Swatch_1-6)"/><path d="m47 24h-4a1 1 0 0 0 -1 1v4a1 1 0 0 0 1 1h4a1 1 0 0 0 1-1v-4a1 1 0 0 0 -1-1zm-1 4h-2v-2h2z" fill="url(#New_Gradient_Swatch_1-7)"/><path d="m47 32h-4a1 1 0 0 0 -1 1v4a1 1 0 0 0 1 1h4a1 1 0 0 0 1-1v-4a1 1 0 0 0 -1-1zm-1 4h-2v-2h2z" fill="url(#New_Gradient_Swatch_1-7)"/><path d="m47 40h-4a1 1 0 0 0 -1 1v4a1 1 0 0 0 1 1h4a1 1 0 0 0 1-1v-4a1 1 0 0 0 -1-1zm-1 4h-2v-2h2z" fill="url(#New_Gradient_Swatch_1-7)"/><path d="m50 24h2v2h-2z" fill="url(#New_Gradient_Swatch_1-10)"/><path d="m54 24h2v2h-2z" fill="url(#New_Gradient_Swatch_1-11)"/><g fill="url(#New_Gradient_Swatch_1-12)"><path d="m50 28h6v2h-6z"/><path d="m50 32h6v2h-6z"/><path d="m50 36h6v2h-6z"/><path d="m50 40h6v2h-6z"/></g><path d="m50 44h2v2h-2z" fill="url(#New_Gradient_Swatch_1-10)"/><path d="m54 44h2v2h-2z" fill="url(#New_Gradient_Swatch_1-11)"/></g></svg>